<svg xmlns="http://www.w3.org/2000/svg" width="48" height="52" viewBox="0 0 48 52">
  <path id="printing" d="M14,6v9H8V50H25v7H18v1H46V57H39V50H56V15H37V11.293l-.146-.147-5-5L31.707,6Zm1,1H31v5h5V28.221l-.248-.344L33.17,28.908l.184,1.363-1.359-.219-1.1,2.555,1.1.834-1.117.807.3.752H15Zm17,.707L35.293,11H32V7.707Zm-6.5,2.525L20,13.406V19.58l5.5,3.176L31,19.58V13.406Zm0,1.154,3.947,2.281L25.5,15.945l-3.947-2.277ZM21,14.5l4,2.311v4.5L21,19Zm9,0V19l-4,2.31v-4.5ZM9,16h5v2H11V41H53V27.363l.523-.524-.539-.9L54,25.69V23.31l-1.014-.254.537-.9L53,21.637V18H37V16H55V42.986H9Zm3,3h2V36H31.576l.332.83,1.365-.186-.221,1.361,2.557,1.1.834-1.1.8,1.117,2.582-1.031-.184-1.365,1.359.221,1.1-2.555-1.1-.836,1.117-.807-1.031-2.582-1.365.186.221-1.359-2.557-1.1L37,28.412V19H52v1.635l-.16-.16-.9.539L50.689,20H48.311l-.254,1.014-.9-.537L45.477,22.16l.539.9L45,23.31v2.381l1.014.252-.537.9,1.682,1.686.9-.539L48.311,29h2.379l.254-1.014.9.537.16-.16V40H12Zm37.09,2h.818l.393,1.566,1.385-.832.58.58L51.434,23.7,53,24.092v.816l-1.566.393.832,1.385-.58.58L50.3,26.434,49.91,28h-.82L48.7,26.434l-1.383.832-.58-.58.83-1.385L46,24.908v-.816l1.566-.395-.832-1.383.58-.58,1.385.832Zm-4.41,1.059-.578.348.516.859.578-.348Zm-1.437.865-.857.516.514.857.858-.516ZM49.5,23A1.5,1.5,0,1,0,51,24.5,1.5,1.5,0,0,0,49.5,23Zm-7.973.955-.857.514.514.857.857-.514ZM49.5,24a.5.5,0,1,1-.5.5A.5.5,0,0,1,49.5,24Zm-9.687.984-.857.514.516.858.857-.514ZM25.5,25a4.443,4.443,0,0,0-.935.1l.209.979A3.334,3.334,0,0,1,25.5,26,3.5,3.5,0,0,1,29,29.5a3.48,3.48,0,0,1-.109.863l.969.25A4.441,4.441,0,0,0,30,29.5,4.5,4.5,0,0,0,25.5,25Zm-1.994.471a4.569,4.569,0,0,0-.934.621l.654.758a3.512,3.512,0,0,1,.725-.484Zm14.6.541-.858.516.516.858.857-.516Zm-12.6.906-1.854,1.854.707.707L25,28.832v2.543h1V28.832l.646.646.707-.707Zm-3.68,0a4.554,4.554,0,0,0-.527.99l.934.357a3.5,3.5,0,0,1,.412-.772ZM21.027,29a4.554,4.554,0,0,0-.027.5,4.449,4.449,0,0,0,.045.627l.988-.141A3.4,3.4,0,0,1,22,29.5a3.551,3.551,0,0,1,.021-.387ZM35.4,29.1l1.139,1.578,1.18-1.551,1.119.483-.311,1.92,1.928-.262.453,1.133-1.58,1.139,1.551,1.18-.482,1.121-1.92-.312.26,1.93L37.6,37.9l-1.139-1.578-1.18,1.551-1.121-.482.313-1.92-1.93.262L32.1,34.6l1.578-1.139-1.549-1.18.48-1.121,1.922.313-.262-1.93Zm13.787.014-.777.629.629.777.777-.629Zm-1.555,1.258L46.854,31l.629.777.777-.629Zm-25.367.459-.922.385a4.56,4.56,0,0,0,.555.975l.8-.6A3.5,3.5,0,0,1,22.264,30.826Zm6.3.35a3.6,3.6,0,0,1-.514.707l.73.682a4.529,4.529,0,0,0,.658-.908Zm17.508.449-.777.631.629.777.777-.629ZM36.5,32A1.5,1.5,0,1,0,38,33.5,1.5,1.5,0,0,0,36.5,32Zm-13.2.217-.629.775a4.552,4.552,0,0,0,.949.6l.422-.908A3.51,3.51,0,0,1,23.3,32.217Zm4.08.225a3.41,3.41,0,0,1-.783.379l.315.949a4.472,4.472,0,0,0,1.012-.488Zm17.139.443-.777.629.629.777.777-.629Zm-19.646.057-.182.984A4.354,4.354,0,0,0,25.5,34c.106,0,.212,0,.316-.012l-.074-1A3.435,3.435,0,0,1,24.875,32.941ZM36.5,33a.5.5,0,1,1-.5.5A.5.5,0,0,1,36.5,33Zm6.467,1.143-.621.5.629.777.621-.5ZM9,43.986H55V49H9ZM29,45v3h6V45Zm1,1h4v1H30Zm-4,4H38v7H26Z" transform="translate(-8 -6)" fill="#3e4bc4"/>
</svg>
