<svg xmlns="http://www.w3.org/2000/svg" width="48" height="52" viewBox="0 0 48 52">
  <path id="tool" d="M14,6v9H8V50H25v7H18v1H46V57H39V50H56V15H50V6Zm1,1H49v3H15Zm1,1V9h3V8ZM43,8V9h1V8Zm2,0V9h1V8Zm2,0V9h1V8ZM15,11H49v1H43v9h6v1H43v1h6v1H43v1h6v1H43v1h6V37H15Zm1,1v1h3V12Zm28,1h5v7H44ZM16,14v1h1V14Zm2,0v1h1V14Zm27,0v1h3V14Zm-12.5.957L25,19.287V27.7l7.5,4.33L40,27.7v-8.41ZM9,16h5v2H11V41H53V18H50V16h5V42.986H9Zm7,0v1h1V16Zm2,0v1h1V16Zm14.5.111,5.93,3.424L32.5,22.957l-5.93-3.422ZM16,18v1h1V18Zm2,0v1h1V18Zm-6,1h2V38H50V19h2V40H12Zm4,1v1h1V20Zm2,0v1h1V20Zm8,.359,6,3.465v6.762l-6-3.465Zm13,0v6.76l-6,3.467V23.822ZM16,22v1h1V22Zm2,0v1h1V22ZM9,43.986H55V49H9ZM29,45v3h6V45Zm1,1h4v1H30Zm-4,4H38v7H26Z" transform="translate(-8 -6)" fill="#fff"/>
</svg>
