<svg xmlns="http://www.w3.org/2000/svg" width="48" height="48" viewBox="0 0 48 48">
  <path id="visual" d="M8,8V56H44V51.424L56,44.5V30.49L44,23.563V16.5h-.02a.485.485,0,0,0-.127-.354l-8-8A.485.485,0,0,0,35.5,8.02V8ZM9,9H35v8h8v3.965H32V20H31v3h1V21.965H43v1.6L31,30.49v14l12,6.93V55H9Zm27,.707L42.293,16H36V9.707ZM11,11v2.5h1V12h1.5V11Zm8.5,0v1H21v1.5h1V11ZM24,11v3h9V11Zm1,1h7v1H25Zm-8.5.506L13,14.525v3.935l3.5,2.02,3.5-2.02V14.525Zm0,1.154L18.469,14.8,16.5,15.934,14.531,14.8ZM14,15.644l2.5,1.443L19,15.644v2.238l-2.5,1.443L14,17.883ZM11,19.5V22h2.5V21H12V19.5Zm10,0V21H19.5v1H22V19.5Zm22,5.217v1.578l-1.365-.789Zm1,0,10.377,5.99L44,36.7V24.717Zm-28.062.658-.445.895v0l-1.99,4s0,.009,0,.014a.5.5,0,0,0-.049.211L13.488,47h-.5l.006,3,.5,0,.008,3,5-.01-.008-3,.5,0-.006-3h-.5l-.037-16.5a.484.484,0,0,0-.051-.209s0-.01,0-.014l-1.561-3.1Zm24.7.707,1.836,1.063L40.6,28.221l-1.836-1.06ZM15.943,27.611l1.2,2.379-.691,0-1,0-.689,0Zm21.824.127,1.838,1.06-1.867,1.078L35.9,28.816ZM43,27.992V29.6l-1.395-.8Zm-2.4,1.385,2.043,1.178-1.865,1.078-2.043-1.18Zm-5.7.016,1.836,1.061L34.461,31.77l-1.838-1.061ZM26,30v1h1V44H26v1h3V44H28V31h1V30Zm-8.549.99.037,16-1,0-.037-16Zm-2,0,.037,16-1,0-.037-16Zm22.287.037,2.043,1.18L37.5,33.525l-2.043-1.178ZM32,31.5l2,1.154v2.414l-2-1.154Zm23,0V43.92L44,50.27V37.854Zm-12,0v1.406l-1.219-.7Zm-2.219,1.281,1.971,1.137L40.473,35.24,38.5,34.1ZM35,33.234l2,1.156v2.416L35,35.65Zm8,1.7V36.7l-1.527-.881Zm-5,.031,2,1.154v2.416l-2-1.154Zm-6,.105,2,1.156v2.344l-2-1.154ZM41,36.7l2,1.154V40.27l-2-1.154ZM35,36.8l2,1.156V40.3L35,39.15Zm3,1.732,2,1.156v2.344l-2-1.154Zm-6,.035,2,1.156v2.344l-2-1.154Zm9,1.7,2,1.156V43.77l-2-1.154Zm-6,.037,2,1.154v2.346L35,42.65Zm3,1.731,2,1.156v2.344l-2-1.154Zm-6,.037,2,1.154v1.846L32,43.92Zm9,1.7,2,1.156V47.27l-2-1.154Zm-6,.037,2,1.154v1.846L35,45.65Zm3,1.731,2,1.156v1.844l-2-1.154Zm3,1.732,2,1.156V50.27l-2-1.154Zm-23.01.719,0,1L14.742,49h-.75l0-1Zm-.5,2,.008,2L14.5,52l-.008-2Z" transform="translate(-8 -8)" fill="#3e4bc4"/>
</svg>
